PathFileType  4	(X/Y/Z) C:\Users\antoi\Documents\MyRepositories\mobilecap\ResultsAnalysis
DataRate	CameraRate	NumFrames	NumMarkers	Units	OrigDataRate	OrigDataStartFrame	OrigNumFrames
100.0	100.0	5	51	mm	100.0	985	1312
Frame#	Time	r_knee			r_shank_antsup			r_ankle			r_calc			r_5meta			r_toe			L_knee			L_shank_antsup			L_ankle			L_calc			L_5meta			L_toe			r_sh2			r_sh3			r_sh4			L_sh2			L_sh3			r_thigh1			r_thigh2			r_thigh3			r_thigh4			r_thigh5			L_thigh1			L_thigh2			L_thigh3			L_thigh4			r.ASIS			r.PSIS			L.ASIS			L.PSIS			C7			R_Shoulder			L_Shoulder			R_Sternum			L_Sternum			R_humerus			R_elbow_med			R_elbow_lat			R_forearm			R_wrist_radius			R_wrist_ulna			L_humerus			L_elbow_med			L_elbow_lat			L_forearm			L_wrist_radius			L_wrist_ulna			R_HJC			L_HJC			R_HJC_reg			L_HJC_reg			
		X1	Y1	Z1	X2	Y2	Z2	X3	Y3	Z3	X4	Y4	Z4	X5	Y5	Z5	X6	Y6	Z6	X7	Y7	Z7	X8	Y8	Z8	X9	Y9	Z9	X10	Y10	Z10	X11	Y11	Z11	X12	Y12	Z12	X13	Y13	Z13	X14	Y14	Z14	X15	Y15	Z15	X16	Y16	Z16	X17	Y17	Z17	X18	Y18	Z18	X19	Y19	Z19	X20	Y20	Z20	X21	Y21	Z21	X22	Y22	Z22	X23	Y23	Z23	X24	Y24	Z24	X25	Y25	Z25	X26	Y26	Z26	X27	Y27	Z27	X28	Y28	Z28	X29	Y29	Z29	X30	Y30	Z30	X31	Y31	Z31	X32	Y32	Z32	X33	Y33	Z33	X34	Y34	Z34	X35	Y35	Z35	X36	Y36	Z36	X37	Y37	Z37	X38	Y38	Z38	X39	Y39	Z39	X40	Y40	Z40	X41	Y41	Z41	X42	Y42	Z42	X43	Y43	Z43	X44	Y44	Z44	X45	Y45	Z45	X46	Y46	Z46	X47	Y47	Z47	X48	Y48	Z48	X49	Y49	Z49	X50	Y50	Z50	X51	Y51	Z51	

985	9.84000000	-146.05370	512.69068	-386.02370	-132.14001	431.67072	-365.34653	-287.93269	104.55591	-387.01945	-346.85780	54.00104	-434.50548	-157.84546	38.22295	-325.17447	-115.99996	61.84805	-380.81104	-144.02450	555.65804	-875.31425	-142.51981	443.86546	-914.70016	-263.48160	132.09104	-898.61040	-328.41957	91.45458	-843.25110	-141.39099	31.25774	-963.97310	-102.00305	58.67788	-907.41021	-166.94492	323.99688	-357.80758	-203.04309	455.31117	-357.64480	-246.38390	347.09969	-356.98494	-222.93700	475.55292	-888.91328	-254.59796	358.79495	-897.21751	-236.56448	818.44585	-372.36717	-170.43113	727.52804	-374.49194	-211.34799	682.90665	-347.40775	-328.01413	748.99748	-382.20819	-253.29458	654.53861	-373.96174	-238.94110	857.73712	-794.15977	-160.58368	750.94954	-844.44920	-334.51581	783.99871	-797.91701	-250.18386	686.80563	-849.33570	-243.06598	934.76065	-440.17580	-397.59120	1044.45057	-524.17917	-231.37191	934.80147	-695.71284	-392.32957	1043.22045	-627.49739	-138.91530	1472.03098	-520.55125	-109.99140	1393.08170	-350.56117	-66.01132	1432.18149	-679.15641	-17.11840	1356.61469	-482.46159	-10.42476	1359.98062	-537.64645	-231.63424	1154.68958	-264.77993	-293.01487	1077.42578	-339.74686	-283.45316	1081.80814	-253.34543	-233.09590	927.92424	-236.32707	-196.37150	821.13911	-244.50667	-238.79915	816.44187	-231.16458	-181.20929	1222.88053	-808.25758	-265.66142	1152.69154	-764.31085	-242.29104	1160.26602	-831.30178	-222.94817	992.45513	-879.82440	-200.95351	896.81753	-889.84494	-239.76065	895.09855	-895.42335	-349.30907	894.06884	-450.57456	-336.19434	893.11794	-680.56747	-337.81509	895.99222	-480.76525	-329.23000	893.98556	-649.36530	
986	9.85000000	-149.72220	514.64122	-386.23138	-135.71722	433.40325	-364.99924	-288.17816	104.39397	-386.46409	-346.95312	54.01848	-434.26141	-157.86790	38.16082	-325.11477	-116.03360	61.81371	-380.76455	-147.17859	559.48072	-874.40092	-145.06450	447.53157	-914.22691	-263.01018	134.19020	-899.59802	-327.74958	94.16822	-843.64713	-141.20812	31.45257	-964.18810	-101.21291	59.63716	-908.22647	-169.25444	325.50190	-356.90325	-206.86654	456.22507	-356.87367	-248.79614	347.63885	-356.10042	-225.79903	478.33458	-888.34694	-256.23171	361.15028	-896.88686	-235.28683	822.45300	-371.12023	-170.64652	730.21163	-373.65767	-209.17440	682.72379	-348.26619	-327.92714	754.37167	-380.42234	-255.57206	659.94097	-370.73962	-237.39252	862.91769	-791.75646	-160.61193	755.49511	-842.60201	-334.14465	790.93646	-795.97846	-251.26175	692.67143	-847.73811	-241.18375	941.21452	-437.90874	-396.26019	1050.54595	-521.48572	-230.03207	941.96531	-693.18748	-391.31090	1049.66320	-624.86497	-141.51970	1480.54268	-519.42932	-111.20855	1402.14848	-349.32973	-69.20741	1441.05113	-678.32202	-18.78883	1366.26733	-481.62076	-12.53029	1369.40545	-537.00367	-230.70431	1162.93512	-262.76715	-292.62467	1085.76692	-337.17625	-282.13840	1089.82305	-250.84792	-231.95371	935.93504	-234.24951	-195.77369	828.82286	-242.87474	-238.04517	824.44124	-228.83438	-183.73637	1230.68256	-806.18239	-267.39076	1160.25163	-761.76215	-244.40804	1167.64287	-828.83396	-224.80341	999.66431	-876.75130	-202.65989	904.13024	-886.69106	-241.42341	902.23167	-892.01810	-347.39323	900.22467	-448.20350	-334.60166	899.81656	-678.21671	-335.75063	902.23389	-478.27600	-327.68532	900.79461	-646.72169	
987	9.86000000	-152.95890	516.16818	-387.23416	-139.16221	435.00065	-364.72672	-288.55836	104.06752	-386.20948	-347.01392	54.06227	-434.01285	-157.92949	38.13488	-325.02094	-116.08947	61.72344	-380.69007	-150.31753	562.91228	-873.47351	-147.55816	450.81415	-913.59651	-262.66059	136.05302	-900.39050	-327.17908	96.51507	-843.92168	-141.04356	31.54303	-964.08317	-100.39389	60.71633	-909.34614	-171.62752	326.92140	-356.35043	-210.98198	456.85345	-356.47766	-251.36016	348.03809	-355.40808	-228.47947	480.92959	-887.92304	-257.71623	363.28925	-896.55613	-233.96935	826.04144	-369.91496	-171.24490	733.17570	-372.95139	-208.15629	683.37432	-348.26421	-327.81726	759.49215	-378.57920	-258.28666	665.61830	-366.81065	-235.76660	867.89639	-789.76498	-160.45633	759.46875	-840.88574	-333.63138	797.40833	-793.98479	-252.22280	698.10085	-846.08305	-239.28939	947.34982	-436.05217	-394.94247	1056.31292	-518.69535	-228.65037	948.79120	-690.74522	-390.27311	1055.64551	-622.29173	-144.21783	1488.71450	-518.39503	-112.53476	1410.92576	-348.22435	-72.43173	1449.56014	-677.59524	-20.59485	1375.62923	-480.90412	-14.57246	1378.59766	-536.23891	-229.77538	1170.79496	-260.98137	-291.87277	1093.39259	-334.95363	-280.82544	1097.53036	-248.60216	-230.72893	943.58944	-232.34238	-195.03642	836.11860	-241.21298	-237.16406	832.11529	-226.53343	-186.24934	1238.14752	-804.41403	-269.19413	1167.36155	-759.33595	-246.58267	1174.53040	-826.41768	-226.68524	1006.46294	-873.83460	-204.40331	910.96041	-883.54576	-243.13206	908.87723	-888.58864	-345.36987	905.98643	-445.95321	-333.01888	906.17323	-675.98985	-333.62868	908.36579	-476.11660	-326.05185	907.28264	-644.18914	
988	9.87000000	-156.36451	517.56779	-387.48174	-142.62568	436.40852	-364.53754	-288.86881	103.76343	-386.04449	-347.06713	54.08482	-433.77440	-157.97892	38.09835	-324.92421	-116.14370	61.64639	-380.61298	-153.31014	565.92715	-872.40847	-149.91390	453.74059	-912.87777	-262.36290	137.62061	-900.89884	-326.45098	98.39847	-844.29314	-140.90621	31.39067	-963.53018	-99.67693	61.78193	-910.56279	-174.00297	328.00917	-356.28285	-215.27750	457.36272	-356.34240	-254.08549	348.21668	-354.92521	-231.13711	483.09688	-887.32570	-259.23766	365.25858	-896.49575	-232.78360	829.34406	-368.61449	-172.22114	736.19277	-372.12727	-209.22404	686.02416	-347.21919	-327.66672	764.43071	-376.70359	-259.86131	669.42399	-365.34268	-234.08607	872.66008	-787.67003	-160.27540	762.96522	-839.31132	-333.01975	803.46487	-792.18220	-253.17632	703.08119	-844.51331	-237.27544	953.14546	-434.29399	-393.67780	1061.71727	-516.00748	-226.75551	955.76368	-689.41341	-389.21761	1061.17476	-619.84693	-147.03904	1496.52060	-517.53043	-113.99317	1419.37767	-347.26526	-75.68878	1457.67387	-676.99594	-22.50453	1384.66450	-480.30075	-16.60333	1387.49195	-535.55348	-228.96675	1178.26312	-259.29125	-290.85392	1100.67494	-332.60973	-279.48095	1105.11888	-246.67168	-229.52251	950.86161	-230.42837	-194.21500	843.03814	-239.46545	-236.12239	839.41852	-224.16670	-188.70339	1245.19797	-802.89200	-271.01451	1173.97671	-757.10897	-248.69945	1180.97425	-824.20455	-228.63660	1012.88720	-871.10311	-206.17408	917.21955	-880.36542	-244.93882	915.09258	-885.31796	-342.98754	911.16203	-444.28232	-331.05076	912.47538	-674.33586	-331.43713	914.19475	-474.26289	-324.20598	913.31637	-642.63659	
989	9.88000000	-160.18123	519.17763	-386.51358	-146.11438	437.72900	-364.26763	-288.99528	103.61786	-385.79325	-347.14128	54.08300	-433.56765	-158.00249	38.03364	-324.86656	-116.19452	61.59250	-380.53745	-156.15163	568.58424	-871.26901	-152.16466	456.30119	-912.02127	-262.13201	139.05134	-901.58937	-325.71696	99.86111	-844.87486	-140.74089	31.34196	-963.19675	-99.12058	62.63336	-911.45072	-176.38069	329.04767	-356.09602	-219.22849	457.94688	-356.01953	-256.67291	348.48609	-354.34285	-233.90436	484.78746	-886.53093	-260.97136	366.96981	-896.57318	-231.65826	832.34686	-367.22786	-173.00148	738.55162	-370.90529	-210.62229	689.01914	-346.06199	-327.51676	769.02412	-375.08756	-260.86515	672.36596	-364.82924	-232.66805	876.59545	-785.66549	-160.38760	766.06503	-837.70699	-332.40503	809.04012	-790.46114	-254.17004	707.46563	-842.87262	-235.04972	958.67651	-432.36409	-392.45945	1066.75037	-513.56309	-224.63760	962.57072	-688.69061	-388.13354	1066.29362	-617.58742	-149.95080	1504.00075	-516.90919	-115.57417	1427.48917	-346.39869	-78.97203	1465.33566	-676.56815	-24.48968	1393.36571	-479.78882	-18.77771	1395.97075	-535.12903	-228.25946	1185.36986	-257.75286	-289.91410	1107.80693	-330.16350	-278.08382	1112.33691	-244.76775	-228.28986	957.74750	-228.46096	-193.36214	849.63859	-237.78313	-235.02962	846.26978	-221.95104	-191.11505	1251.71275	-801.48149	-272.72940	1180.15961	-754.93731	-250.74483	1186.98369	-822.15751	-230.60069	1018.81583	-868.45543	-207.98627	923.08136	-877.42554	-246.84202	920.87491	-882.26226	-340.37091	915.97157	-442.85435	-328.83826	918.47353	-672.91962	-329.20477	919.54225	-472.43173	-322.16953	918.80020	-641.61853	
